<svg width="28" height="28" viewBox="0 0 28 28" fill="none" xmlns="http://www.w3.org/2000/svg">
<circle cx="14" cy="14" r="14" fill="#FFFBFF"/>
<mask id="mask0_1_776" style="mask-type:alpha" maskUnits="userSpaceOnUse" x="6" y="6" width="16" height="16">
<rect x="6" y="6" width="16" height="16" fill="#D9D9D9"/>
</mask>
<g mask="url(#mask0_1_776)">
<path d="M9.33333 20.6666C8.96667 20.6666 8.65267 20.5361 8.39133 20.2753C8.13044 20.0139 8 19.6999 8 19.3333V9.99992C8 9.63325 8.13044 9.31947 8.39133 9.05859C8.65267 8.79725 8.96667 8.66659 9.33333 8.66659H10V7.33325H11.3333V8.66659H16.6667V7.33325H18V8.66659H18.6667C19.0333 8.66659 19.3473 8.79725 19.6087 9.05859C19.8696 9.31947 20 9.63325 20 9.99992V19.3333C20 19.6999 19.8696 20.0139 19.6087 20.2753C19.3473 20.5361 19.0333 20.6666 18.6667 20.6666H9.33333ZM9.33333 19.3333H18.6667V12.6666H9.33333V19.3333ZM9.33333 11.3333H18.6667V9.99992H9.33333V11.3333ZM14 15.3333C13.8111 15.3333 13.6529 15.2693 13.5253 15.1413C13.3973 15.0137 13.3333 14.8555 13.3333 14.6666C13.3333 14.4777 13.3973 14.3193 13.5253 14.1913C13.6529 14.0637 13.8111 13.9999 14 13.9999C14.1889 13.9999 14.3473 14.0637 14.4753 14.1913C14.6029 14.3193 14.6667 14.4777 14.6667 14.6666C14.6667 14.8555 14.6029 15.0137 14.4753 15.1413C14.3473 15.2693 14.1889 15.3333 14 15.3333ZM11.3333 15.3333C11.1444 15.3333 10.986 15.2693 10.858 15.1413C10.7304 15.0137 10.6667 14.8555 10.6667 14.6666C10.6667 14.4777 10.7304 14.3193 10.858 14.1913C10.986 14.0637 11.1444 13.9999 11.3333 13.9999C11.5222 13.9999 11.6807 14.0637 11.8087 14.1913C11.9362 14.3193 12 14.4777 12 14.6666C12 14.8555 11.9362 15.0137 11.8087 15.1413C11.6807 15.2693 11.5222 15.3333 11.3333 15.3333ZM16.6667 15.3333C16.4778 15.3333 16.3196 15.2693 16.192 15.1413C16.064 15.0137 16 14.8555 16 14.6666C16 14.4777 16.064 14.3193 16.192 14.1913C16.3196 14.0637 16.4778 13.9999 16.6667 13.9999C16.8556 13.9999 17.0138 14.0637 17.1413 14.1913C17.2693 14.3193 17.3333 14.4777 17.3333 14.6666C17.3333 14.8555 17.2693 15.0137 17.1413 15.1413C17.0138 15.2693 16.8556 15.3333 16.6667 15.3333ZM14 17.9999C13.8111 17.9999 13.6529 17.9359 13.5253 17.8079C13.3973 17.6804 13.3333 17.5221 13.3333 17.3333C13.3333 17.1444 13.3973 16.9861 13.5253 16.8586C13.6529 16.7306 13.8111 16.6666 14 16.6666C14.1889 16.6666 14.3473 16.7306 14.4753 16.8586C14.6029 16.9861 14.6667 17.1444 14.6667 17.3333C14.6667 17.5221 14.6029 17.6804 14.4753 17.8079C14.3473 17.9359 14.1889 17.9999 14 17.9999ZM11.3333 17.9999C11.1444 17.9999 10.986 17.9359 10.858 17.8079C10.7304 17.6804 10.6667 17.5221 10.6667 17.3333C10.6667 17.1444 10.7304 16.9861 10.858 16.8586C10.986 16.7306 11.1444 16.6666 11.3333 16.6666C11.5222 16.6666 11.6807 16.7306 11.8087 16.8586C11.9362 16.9861 12 17.1444 12 17.3333C12 17.5221 11.9362 17.6804 11.8087 17.8079C11.6807 17.9359 11.5222 17.9999 11.3333 17.9999ZM16.6667 17.9999C16.4778 17.9999 16.3196 17.9359 16.192 17.8079C16.064 17.6804 16 17.5221 16 17.3333C16 17.1444 16.064 16.9861 16.192 16.8586C16.3196 16.7306 16.4778 16.6666 16.6667 16.6666C16.8556 16.6666 17.0138 16.7306 17.1413 16.8586C17.2693 16.9861 17.3333 17.1444 17.3333 17.3333C17.3333 17.5221 17.2693 17.6804 17.1413 17.8079C17.0138 17.9359 16.8556 17.9999 16.6667 17.9999Z" fill="#1C1B1F"/>
</g>
</svg>
